<svg width="128" height="128" version="1.1" viewBox="0 0 34 34" xmlns="http://www.w3.org/2000/svg">
 <path d="m14 27.6 0.372-0.707q0.744-0.0868 1.1-0.124 0.372-0.0372 1.18-0.062 0.0248-0.198 0.0248-0.831 0-0.459 0-4.14v-5.26q-2.68 0-4.71-1.23-2.03-1.24-2.03-3.88 0-1.9 0.695-2.88 0.695-0.98 1.69-1.48 0.99-0.5 2.85-0.67h1.66q1.38 0 2.78 0.0248 2.98 0.0248 4.29 0.0496l-0.347 0.682q-0.868 0.0744-1.29 0.0992t-1.25 0.0868q-0.0248 0.533-0.0496 1.09-0.0248 0.583-0.0248 3.86v9.5q0 1.7 0 3.3 0 1.18 0.0124 1.61 1.28 0.062 3.01 0.236l-0.335 0.695q-2.21 0.0744-5.18 0.0992-2.34 0-4.44-0.0744zm2.68-20.4q-1.46 0.186-2.06 0.546-0.595 0.347-1.12 1.15-0.521 0.794-0.521 2.42 0 1.38 0.273 2.03 0.285 0.657 0.645 1.09 0.372 0.434 0.943 0.744 0.571 0.298 1.84 0.372zm1.04 19.5h2.16l0.0124-19.5-2.16-0.0496z" stroke-width=".265" aria-label="¶"/>
</svg>
