<svg version="1.1" viewBox="0 0 34 34" xmlns="http://www.w3.org/2000/svg"><path d="m13.2 32.7 0.554-1.05q1.11-0.13 1.64-0.185 0.554-0.0554 1.75-0.0923 0.0369-0.295 0.0369-1.24 0-0.683 0-6.17v-7.83q-4 0-7.01-1.83-3.03-1.85-3.03-5.78 0-2.82 1.03-4.28 1.03-1.46 2.51-2.2 1.48-0.738 4.25-0.997h2.47q2.05 0 4.13 0.037 4.43 0.037 6.4 0.0738l-0.517 1.02q-1.29 0.11-1.92 0.148-0.628 0.037-1.86 0.129-0.037 0.794-0.0738 1.62-0.037 0.868-0.037 5.74v14.1q0 2.53 0 4.9 0 1.75 0.0185 2.4 1.9 0.0923 4.5 0.351l-0.5 1.03q-3.29 0.111-7.72 0.148-3.5 0-6.61-0.111zm4-30.4q-2.18 0.277-3.06 0.812-0.886 0.517-1.66 1.72-0.775 1.18-0.775 3.6 0 2.05 0.406 3.03 0.425 0.98 0.96 1.62 0.554 0.646 1.4 1.1 0.85 0.443 2.73 0.554zm1.55 29h3.21l0.0185-29-3.21-0.0738z"/><style>path{fill:black;@media(prefers-color-scheme:dark){path{fill:white;}}</style></svg>